<?xml version="1.0" standalone="no"?>
<!DOCTYPE svg PUBLIC "-//W3C//DTD SVG 20010904//EN"
 "http://www.w3.org/TR/2001/REC-SVG-20010904/DTD/svg10.dtd">
<svg version="1.0" xmlns="http://www.w3.org/2000/svg"
 width="512.000000pt" height="512.000000pt" viewBox="0 0 512.000000 512.000000"
 preserveAspectRatio="xMidYMid meet">

<g transform="translate(0.000000,512.000000) scale(0.100000,-0.100000)"
fill="#000000" stroke="none">
<path d="M2463 5062 c-148 -128 -319 -342 -406 -510 -98 -189 -131 -353 -103
-512 60 -339 395 -565 731 -495 242 51 438 252 481 495 28 158 1 300 -96 495
-87 176 -273 412 -422 536 -80 66 -99 65 -185 -9z m189 -243 c156 -170 256
-321 312 -473 26 -72 30 -94 30 -191 0 -90 -4 -120 -22 -165 -44 -110 -141
-208 -252 -252 -45 -18 -75 -22 -160 -22 -85 0 -115 4 -160 22 -111 44 -208
142 -252 252 -18 45 -22 75 -22 165 0 97 4 119 30 191 36 98 97 207 173 308
64 85 218 256 231 256 5 0 46 -41 92 -91z"/>
<path d="M2703 4230 c-28 -11 -49 -45 -57 -92 -8 -43 -46 -78 -86 -78 -64 0
-105 -71 -76 -129 40 -76 207 -44 280 52 60 78 76 185 34 225 -28 25 -66 34
-95 22z"/>
<path d="M2390 3170 c-353 -43 -662 -192 -905 -436 -398 -400 -497 -515 -605
-704 -24 -41 -45 -77 -47 -80 -2 -2 -160 152 -351 343 -304 303 -352 348 -384
354 -32 5 -41 1 -68 -25 -21 -22 -30 -40 -30 -64 0 -30 92 -125 1263 -1295
1194 -1195 1264 -1263 1297 -1263 33 0 103 68 1297 1263 1171 1170 1263 1265
1263 1295 0 24 -9 42 -30 64 -27 26 -36 30 -68 25 -32 -6 -80 -51 -384 -354
-191 -191 -349 -345 -351 -343 -2 3 -23 39 -47 80 -108 189 -204 301 -606 705
-216 218 -505 369 -804 420 -116 19 -339 27 -440 15z m-430 -377 c55 -103 186
-216 317 -271 218 -92 506 -61 706 77 59 40 146 136 177 194 14 26 28 47 32
47 11 0 137 -78 183 -113 62 -48 141 -121 196 -182 l51 -55 -36 -76 c-208
-438 -697 -701 -1182 -633 -375 52 -717 303 -878 646 l-29 62 49 53 c76 83
176 170 251 219 37 25 79 52 93 62 37 24 43 21 70 -30z m-560 -518 c155 -281
420 -503 730 -613 153 -54 237 -67 430 -67 190 0 269 12 423 64 307 104 581
334 738 618 l43 77 81 -86 c101 -107 199 -245 262 -365 l48 -93 -797 -797
-798 -798 -797 798 -798 797 48 93 c61 118 155 249 257 360 45 48 83 87 85 87
2 0 22 -34 45 -75z"/>
</g>
</svg>
