<?xml version="1.0" standalone="no"?>
<!DOCTYPE svg PUBLIC "-//W3C//DTD SVG 20010904//EN"
 "http://www.w3.org/TR/2001/REC-SVG-20010904/DTD/svg10.dtd">
<svg version="1.0" xmlns="http://www.w3.org/2000/svg"
 width="512.000000pt" height="512.000000pt" viewBox="0 0 512.000000 512.000000"
 preserveAspectRatio="xMidYMid meet">

<g transform="translate(0.000000,512.000000) scale(0.100000,-0.100000)"
fill="#000000" stroke="none">
<path d="M1115 5086 c-39 -42 -110 -161 -165 -278 -125 -268 -186 -604 -161
-897 21 -254 88 -509 192 -731 l50 -104 -21 -49 c-66 -152 -10 -408 119 -549
58 -63 150 -116 219 -125 39 -5 41 -7 47 -47 30 -192 109 -341 279 -523 l76
-82 -2 -186 -3 -187 -225 -78 c-509 -175 -872 -334 -1085 -476 -185 -123 -352
-358 -414 -584 -28 -99 -27 -135 4 -165 l24 -25 2361 0 2361 0 24 25 c31 30
32 66 4 165 -55 200 -217 444 -368 554 -193 140 -612 328 -1131 506 l-225 78
-3 187 -2 186 76 82 c152 163 222 283 264 451 l27 109 53 14 c216 55 366 298
345 560 -6 79 -5 84 29 151 88 176 170 407 206 582 69 338 10 612 -168 782
-93 89 -208 137 -364 153 -67 7 -67 8 -87 49 -92 188 -314 331 -601 386 -271
53 -446 34 -858 -91 -231 -70 -296 -82 -411 -77 -75 3 -106 9 -140 27 -58 30
-134 103 -182 172 -55 82 -92 90 -144 35z m1334 -362 c51 -64 14 -111 -120
-153 -101 -32 -281 -71 -321 -71 -66 1 -98 95 -47 137 8 6 68 23 134 37 66 14
154 36 195 50 102 33 133 33 159 0z m526 -659 l25 -24 0 -234 c0 -221 -1 -234
-20 -255 l-21 -22 -549 0 -549 0 -21 22 c-19 21 -20 34 -20 255 l0 234 25 24
24 25 541 0 541 0 24 -25z m-1308 -334 c0 0 3 -47 5 -104 3 -93 6 -108 31
-145 15 -23 46 -54 69 -69 l42 -28 575 -3 c404 -2 587 0 614 8 49 14 120 85
137 134 l12 37 52 -88 c29 -48 69 -112 90 -141 42 -57 66 -125 66 -183 0 -54
34 -79 110 -79 115 0 187 -45 211 -133 25 -89 -24 -270 -95 -354 -41 -48 -119
-83 -187 -83 -85 0 -95 -13 -119 -145 -23 -129 -43 -192 -83 -259 -133 -227
-399 -444 -631 -515 -93 -28 -219 -28 -312 0 -231 71 -498 289 -631 515 -40
67 -60 130 -83 259 -24 132 -34 145 -119 145 -68 0 -146 35 -187 83 -72 85
-120 265 -94 357 23 84 99 130 213 130 44 0 62 5 83 23 l27 24 -12 289 c-6
159 -11 300 -11 314 l0 25 112 -6 c62 -4 114 -7 115 -8z m455 -2265 c94 -39
213 -66 288 -66 121 0 310 60 435 138 l62 40 7 -61 c3 -33 6 -97 6 -142 0 -74
-3 -86 -28 -121 -68 -94 -188 -167 -317 -195 -83 -18 -265 -15 -348 5 -124 29
-232 98 -299 190 -25 35 -28 47 -28 121 0 45 3 109 6 142 l7 60 63 -38 c35
-22 101 -54 146 -73z m-91 -494 c136 -66 190 -76 379 -76 189 0 243 10 380 76
68 33 100 57 167 124 l83 84 182 -64 c540 -188 919 -356 1110 -491 122 -87
261 -288 312 -452 l7 -23 -2241 0 -2241 0 6 23 c28 98 149 298 232 383 138
142 572 346 1191 559 l182 63 83 -83 c67 -66 100 -91 168 -123z"/>
<path d="M1966 3086 c-53 -57 -73 -66 -156 -73 -82 -7 -110 -26 -110 -78 0
-25 7 -39 28 -55 24 -20 35 -22 104 -17 122 8 227 66 269 148 22 45 18 82 -14
104 -39 28 -76 19 -121 -29z"/>
<path d="M2733 3115 c-32 -22 -36 -59 -14 -104 42 -82 147 -140 269 -148 69
-5 80 -3 105 17 20 16 27 30 27 55 0 52 -28 71 -110 78 -83 7 -103 16 -156 73
-45 48 -82 57 -121 29z"/>
<path d="M2355 2409 c-67 -8 -143 -48 -188 -98 -72 -80 -87 -144 -41 -180 50
-40 72 -30 149 65 35 43 78 64 135 64 57 0 100 -21 135 -64 77 -95 99 -105
149 -65 35 28 34 72 -2 130 -71 112 -196 167 -337 148z"/>
<path d="M4610 5111 c-48 -15 -87 -40 -120 -77 -69 -79 -65 -25 -68 -907 l-3
-798 -39 -35 c-190 -172 -183 -499 14 -658 256 -208 628 -87 711 229 39 151
-6 307 -121 422 l-54 54 0 793 0 792 -26 52 c-14 29 -42 65 -62 82 -62 51
-160 73 -232 51z m119 -155 c46 -24 51 -51 51 -256 l0 -190 -100 0 -100 0 0
196 c0 114 4 203 10 214 13 24 57 49 88 50 13 0 35 -6 51 -14z m51 -1152 l0
-546 26 -21 c85 -71 106 -94 130 -143 36 -75 37 -158 3 -234 -103 -224 -409
-231 -516 -12 -37 75 -38 172 -4 245 21 42 111 137 130 137 19 0 31 60 31 155
l0 105 36 0 c26 0 43 8 65 29 33 33 35 50 14 90 -16 33 -33 41 -81 41 l-34 0
0 134 0 133 42 6 c115 15 112 157 -3 157 l-39 0 0 135 0 135 100 0 100 0 0
-546z"/>
<path d="M976 2209 c-65 -51 -119 -210 -119 -349 0 -86 3 -104 38 -190 69
-176 84 -225 85 -273 0 -37 5 -53 25 -72 52 -53 125 -13 125 69 0 72 -19 143
-66 253 -24 56 -49 125 -55 154 -16 73 2 175 46 262 43 84 45 118 9 146 -34
26 -54 26 -88 0z"/>
<path d="M3756 2209 c-36 -28 -34 -62 9 -146 42 -83 60 -183 46 -257 -5 -28
-28 -94 -51 -146 -74 -170 -90 -291 -45 -335 52 -53 125 -13 125 69 0 50 21
121 73 246 52 122 63 203 44 312 -25 146 -100 278 -156 278 -10 0 -30 -9 -45
-21z"/>
<path d="M393 1875 c-44 -31 -80 -215 -63 -323 11 -68 23 -102 75 -222 23 -54
38 -108 42 -149 10 -102 64 -140 128 -89 27 21 27 24 22 98 -4 63 -15 103 -62
221 -53 133 -58 150 -57 219 1 41 8 95 16 119 23 64 20 96 -10 120 -32 25 -61
27 -91 6z"/>
<path d="M4336 1869 c-30 -24 -33 -51 -11 -123 8 -27 15 -83 15 -125 0 -64 -6
-89 -36 -161 -63 -151 -75 -194 -81 -271 -5 -73 -5 -76 22 -97 33 -27 65 -28
94 -4 17 13 24 35 32 90 6 45 27 114 55 179 24 58 49 124 55 146 16 60 13 194
-7 272 -27 107 -77 142 -138 94z"/>
</g>
</svg>
