<?xml version="1.0" standalone="no"?>
<!DOCTYPE svg PUBLIC "-//W3C//DTD SVG 20010904//EN"
 "http://www.w3.org/TR/2001/REC-SVG-20010904/DTD/svg10.dtd">
<svg version="1.0" xmlns="http://www.w3.org/2000/svg"
 width="512.000000pt" height="512.000000pt" viewBox="0 0 512.000000 512.000000"
 preserveAspectRatio="xMidYMid meet">

<g transform="translate(0.000000,512.000000) scale(0.100000,-0.100000)"
fill="#000000" stroke="none">
<path d="M3570 5095 c-204 -39 -373 -108 -545 -223 -90 -60 -213 -179 -1230
-1190 -1427 -1420 -1454 -1447 -1524 -1542 -397 -535 -348 -1262 116 -1733
272 -277 612 -410 1004 -394 264 11 470 78 699 228 85 56 228 195 1404 1368
810 809 1331 1336 1367 1384 346 461 341 1111 -13 1589 -189 255 -466 432
-788 503 -104 23 -390 29 -490 10z m396 -220 c406 -71 746 -366 868 -753 74
-234 74 -448 0 -684 -31 -98 -108 -248 -172 -332 -25 -34 -313 -330 -641 -659
l-596 -597 -787 787 -788 788 588 588 c354 355 621 614 672 653 87 66 223 138
318 169 168 54 370 69 538 40z"/>
<path d="M3625 4534 c-83 -13 -204 -47 -268 -75 -94 -41 -220 -125 -282 -189
-45 -45 -50 -55 -50 -95 0 -52 30 -90 83 -104 45 -13 69 -3 145 62 197 167
459 225 707 156 100 -27 192 -76 289 -153 73 -58 88 -66 126 -66 70 0 121 64
107 135 -5 31 -94 114 -185 173 -160 103 -317 152 -512 157 -71 2 -143 1 -160
-1z"/>
</g>
</svg>
