<?xml version="1.0" standalone="no"?>
<!DOCTYPE svg PUBLIC "-//W3C//DTD SVG 20010904//EN"
 "http://www.w3.org/TR/2001/REC-SVG-20010904/DTD/svg10.dtd">
<svg version="1.0" xmlns="http://www.w3.org/2000/svg"
 width="512.000000pt" height="512.000000pt" viewBox="0 0 512.000000 512.000000"
 preserveAspectRatio="xMidYMid meet">

<g transform="translate(0.000000,512.000000) scale(0.100000,-0.100000)"
fill="#000000" stroke="none">
<path d="M3270 5105 c-302 -48 -590 -222 -775 -469 -115 -155 -151 -241 -260
-634 -47 -168 -87 -307 -89 -309 -2 -2 -45 23 -95 56 -339 222 -773 222 -1122
-1 -124 -79 -157 -138 -106 -186 35 -33 70 -27 137 23 92 67 156 101 256 134
325 109 667 23 907 -228 92 -96 157 -204 199 -331 31 -92 32 -101 33 -265 0
-167 -1 -172 -33 -265 -35 -101 -73 -176 -128 -251 l-34 -47 -48 14 c-316 96
-712 31 -999 -164 l-60 -41 -49 33 c-166 112 -290 283 -350 481 -24 79 -27
107 -28 235 -1 159 14 234 75 372 27 61 29 71 17 96 -7 15 -26 33 -41 40 -60
29 -104 -24 -157 -188 -41 -131 -54 -224 -47 -360 13 -269 118 -503 309 -686
46 -44 98 -89 116 -99 18 -11 32 -23 32 -28 0 -5 -24 -35 -52 -67 -112 -124
-203 -301 -255 -498 -24 -87 -26 -115 -26 -277 0 -162 2 -190 26 -277 60 -226
148 -384 300 -544 108 -113 203 -184 335 -249 458 -227 1005 -137 1375 226
l77 76 148 6 c111 4 170 11 242 30 371 97 683 366 819 707 29 73 171 566 171
594 0 29 -41 66 -74 66 -55 0 -68 -26 -136 -270 -75 -273 -99 -343 -146 -429
-140 -256 -375 -441 -656 -516 -97 -26 -264 -45 -257 -29 2 5 23 47 45 94 80
163 116 325 116 519 -1 432 -232 826 -609 1037 -35 20 -63 37 -63 39 0 1 24
42 54 89 82 130 146 329 146 451 0 35 4 45 16 45 20 0 1576 -431 1586 -439 4
-3 -13 -78 -38 -166 -24 -87 -41 -167 -38 -177 9 -28 45 -58 70 -58 61 0 59
-6 288 820 118 426 223 807 233 845 13 54 17 111 17 245 -1 155 -4 186 -26
271 -47 173 -112 312 -207 440 -108 144 -297 298 -452 368 -215 97 -462 131
-689 96z m-1228 -2899 c376 -96 660 -381 759 -759 25 -93 40 -357 21 -357 -6
0 -374 144 -819 321 -444 176 -861 341 -925 366 -65 25 -118 50 -118 54 0 17
133 150 199 198 131 97 291 166 441 191 41 6 82 13 90 15 47 12 263 -6 352
-29z m-266 -870 c489 -194 919 -366 956 -381 l66 -26 -23 -67 c-27 -82 -66
-162 -77 -162 -17 0 -1900 748 -1912 760 -15 15 67 230 88 230 7 0 413 -159
902 -354z m-296 -321 c382 -152 793 -315 913 -363 119 -47 217 -90 217 -97 0
-18 -169 -177 -235 -222 -272 -183 -606 -229 -915 -127 -418 139 -694 502
-717 945 -7 128 -2 154 25 146 9 -2 330 -129 712 -282z"/>
<path d="M1342 3417 c-12 -13 -22 -36 -22 -51 0 -34 41 -76 75 -76 35 0 75 42
75 78 0 63 -84 95 -128 49z"/>
<path d="M1680 3040 c-49 -49 -3 -139 65 -126 61 12 83 71 44 120 -26 33 -79
36 -109 6z"/>
<path d="M1104 2952 c-27 -4 -50 -29 -59 -63 -5 -20 0 -33 18 -54 33 -38 81
-39 114 -1 28 33 29 56 3 88 -21 27 -42 36 -76 30z"/>
<path d="M1490 2647 c-52 -26 -51 -109 2 -135 48 -22 107 15 108 69 0 24 -32
69 -50 69 -4 0 -14 2 -22 5 -7 3 -24 -1 -38 -8z"/>
</g>
</svg>
