<?xml version="1.0" standalone="no"?>
<!DOCTYPE svg PUBLIC "-//W3C//DTD SVG 20010904//EN"
 "http://www.w3.org/TR/2001/REC-SVG-20010904/DTD/svg10.dtd">
<svg version="1.0" xmlns="http://www.w3.org/2000/svg"
 width="512.000000pt" height="512.000000pt" viewBox="0 0 512.000000 512.000000"
 preserveAspectRatio="xMidYMid meet">

<g transform="translate(0.000000,512.000000) scale(0.100000,-0.100000)"
fill="#000000" stroke="none">
<path d="M2412 5110 c-75 -11 -172 -62 -222 -116 -23 -25 -56 -75 -73 -112
-32 -67 -32 -67 -35 -259 -2 -116 -8 -193 -14 -193 -5 0 -34 -12 -64 -27 -139
-68 -206 -212 -190 -407 12 -140 81 -247 195 -303 l56 -28 430 -9 c454 -9 523
-5 611 34 66 29 137 101 170 173 27 58 29 71 29 187 0 117 -2 129 -29 188 -36
77 -115 154 -186 179 l-49 17 -3 191 c-5 238 -16 275 -117 376 -93 93 -143
111 -321 114 -74 2 -159 0 -188 -5z"/>
<path d="M1447 2363 c-4 -3 -7 -395 -7 -870 l0 -863 1120 0 1120 0 0 870 0
870 -1113 0 c-613 0 -1117 -3 -1120 -7z"/>
</g>
</svg>
