<?xml version="1.0" standalone="no"?>
<!DOCTYPE svg PUBLIC "-//W3C//DTD SVG 20010904//EN"
 "http://www.w3.org/TR/2001/REC-SVG-20010904/DTD/svg10.dtd">
<svg version="1.0" xmlns="http://www.w3.org/2000/svg"
 width="512.000000pt" height="512.000000pt" viewBox="0 0 512.000000 512.000000"
 preserveAspectRatio="xMidYMid meet">

<g transform="translate(0.000000,512.000000) scale(0.100000,-0.100000)"
fill="#000000" stroke="none">
<path d="M1515 5096 l-25 -25 0 -281 0 -281 25 -24 c23 -24 29 -25 165 -25
l140 0 -2 -312 -3 -312 -80 -23 c-422 -120 -720 -421 -862 -868 l-38 -120 -3
-1356 -2 -1356 22 -33 c13 -18 36 -43 51 -54 l28 -21 1570 -3 1570 -2 30 29
29 29 0 506 0 506 39 0 c48 0 90 15 107 38 11 13 13 127 14 543 0 504 -1 528
-19 550 l-19 24 -311 3 -311 3 0 272 c0 290 -4 321 -57 482 -57 175 -158 349
-279 483 -129 144 -357 283 -555 341 l-94 27 -3 312 -2 312 140 0 c136 0 142
1 165 25 l25 24 0 279 c0 261 -1 281 -19 303 l-19 24 -696 3 -697 2 -24 -24z
m957 -995 l3 -359 23 -25 c17 -18 49 -31 110 -46 166 -41 289 -96 409 -180
179 -126 319 -319 394 -540 30 -88 59 -222 59 -272 l0 -29 -1240 0 -1240 0 0
29 c0 102 64 316 135 449 150 282 383 456 725 542 48 12 95 31 108 43 l22 20
0 357 c0 196 3 360 7 363 3 4 113 7 244 7 l238 0 3 -359z m998 -1746 l0 -125
-295 0 c-310 0 -343 -4 -359 -45 -3 -9 -6 -252 -6 -539 l0 -523 25 -23 c18
-17 40 -25 80 -28 l55 -4 0 -39 0 -39 -990 0 -990 0 0 745 0 745 1240 0 1240
0 0 -125z m660 -704 l0 -409 -60 -4 c-45 -3 -66 -10 -83 -26 l-22 -23 -3 -509
-3 -510 -409 0 -410 0 0 450 0 450 330 0 330 0 0 85 0 85 -415 0 -415 0 0 245
0 245 495 0 495 0 0 85 0 85 -495 0 -495 0 0 80 0 80 580 0 580 0 0 -409z
m-1160 -1156 l0 -325 -990 0 -990 0 0 325 0 325 990 0 990 0 0 -325z"/>
<path d="M1240 1815 l0 -85 80 0 80 0 0 85 0 85 -80 0 -80 0 0 -85z"/>
<path d="M1490 1815 l0 -85 80 0 80 0 0 85 0 85 -80 0 -80 0 0 -85z"/>
<path d="M1240 1570 l0 -80 290 0 290 0 0 80 0 80 -290 0 -290 0 0 -80z"/>
<path d="M1240 1320 l0 -80 455 0 455 0 0 80 0 80 -455 0 -455 0 0 -80z"/>
</g>
</svg>
